<?xml version="1.0" encoding="UTF-8" standalone="no"?>
<svg
   xmlns:dc="http://purl.org/dc/elements/1.1/"
   xmlns:cc="http://creativecommons.org/ns#"
   xmlns:rdf="http://www.w3.org/1999/02/22-rdf-syntax-ns#"
   xmlns:svg="http://www.w3.org/2000/svg"
   xmlns="http://www.w3.org/2000/svg"
   id="svg17"
   xml:space="preserve"
   viewBox="0 0 1024 768"
   y="0px"
   x="0px"
   version="1.1"><metadata
     id="metadata23"><rdf:RDF><cc:Work
         rdf:about=""><dc:format>image/svg+xml</dc:format><dc:type
           rdf:resource="http://purl.org/dc/dcmitype/StillImage" /></cc:Work></rdf:RDF></metadata><defs
     id="defs21" /><style
     id="style2">
#logo-fade{
opacity: 0;
animation: fadeIn 4s ease-in forwards infinite;
}

@keyframes fadeIn { 0% { opacity:0; } 50% { opacity:0; } 100% { opacity:1; } }
@keyframes fadeOut { from { opacity:1; } to { opacity:0; } }

#outline{
opacity: 1;
stroke-dasharray: 2000;
stroke-dashoffset: 2000;
animation: dash 4s ease-in-out forwards infinite;
}

@keyframes dash {
  0% {
    opacity: 1;
    stroke-dashoffset: 2000;
  }
  50% {
    opacity: 1;
    stroke-dashoffset: 1000;
  }
  100% {
    opacity: 0;
    stroke-dashoffset: 0;
  }
}
</style><path
     stroke-linecap="round"
     stroke-linejoin="round"
     stroke-width="4"
     stroke="#d5d7da"
     fill="none"
     d="m442.50781 338.17383c-2.13695 0-4.03673 0.83165-5.58008 2.375-1.54334 1.54334-2.25586 3.324-2.25585 5.46094 0 2.13694 0.71251 4.03673 2.25585 5.58007 1.54335 1.54335 3.44313 2.25586 5.58008 2.25586 2.13694 0 3.91759-0.71251 5.46094-2.25586 1.54335-1.54334 2.37305-3.44313 2.37305-5.58007s-0.8297-3.9176-2.37305-5.46094c-1.54335-1.54335-3.324-2.375-5.46094-2.375zm-216.46484 12.70117c-0.2395 0.002-0.55976 0.01224-0.71289 0.02344-0.15289 0.0114-0.44055 0.04281-0.63867 0.07031-0.19837 0.0273-0.47121 0.07301-0.60547 0.09961-0.13451 0.0266-0.396 0.0864-0.58203 0.13281-0.18628 0.0467-0.51368 0.14152-0.72657 0.21289-0.21312 0.0711-0.53314 0.1921-0.71289 0.26758-0.1795 0.0757-0.48468 0.21867-0.67773 0.31641-0.19281 0.098-0.49232 0.26267-0.66602 0.36718-0.17345 0.10451-0.43937 0.27538-0.58984 0.38086-0.15071 0.10547-0.41713 0.30622-0.5918 0.44532-0.1749 0.13934-0.54036 0.47591-0.81445 0.75s-0.61066 0.6415-0.75 0.8164c-0.1391 0.17467-0.33984 0.44109-0.44531 0.5918-0.10548 0.15047-0.27831 0.41444-0.38282 0.58789-0.1045 0.1737-0.26921 0.47492-0.36718 0.66797-0.0977 0.19281-0.23874 0.49604-0.31446 0.67578-0.0755 0.1795-0.19645 0.50196-0.26757 0.71484-0.0711 0.21289-0.1615 0.51093-0.20118 0.66407-0.0394 0.15289-0.0992 0.4156-0.13281 0.58203-0.0336 0.1662-0.084 0.46448-0.11133 0.66406-0.0271 0.19958-0.06072 0.5149-0.07422 0.70117-0.0136 0.18628-0.02323 0.42429-0.02343 0.52735v0.1875h-0.1875c-0.10306 0.00024-0.34107 0.01003-0.52735 0.02343-0.18627 0.0136-0.50109 0.04712-0.69922 0.07422-0.19837 0.0271-0.46925 0.07106-0.60351 0.09766-0.13451 0.0266-0.39795 0.0863-0.58399 0.13281-0.18627 0.0467-0.51172 0.14348-0.72461 0.21484-0.21312 0.0711-0.5351 0.1921-0.71484 0.26758-0.1795 0.0757-0.48493 0.21672-0.67773 0.31446-0.19281 0.098-0.49232 0.26463-0.66602 0.36914-0.17345 0.1045-0.43937 0.27538-0.58984 0.38086-0.15072 0.10547-0.41714 0.30621-0.5918 0.44531-0.1749 0.13934-0.54036 0.47591-0.81445 0.75s-0.61066 0.63955-0.75 0.81445c-0.1391 0.17467-0.33984 0.44108-0.44532 0.5918-0.10546 0.15047-0.27635 0.41639-0.38085 0.58984-0.10451 0.1737-0.27117 0.47297-0.36915 0.66602-0.0977 0.1928-0.23873 0.49799-0.31445 0.67773-0.0755 0.17974-0.19645 0.50196-0.26758 0.71485-0.0711 0.21289-0.16149 0.51117-0.20117 0.66406-0.0394 0.15289-0.0992 0.41364-0.13281 0.58008-0.0336 0.1662-0.084 0.46643-0.11133 0.66601-0.0271 0.19958-0.05866 0.5149-0.07226 0.70117-0.0136 0.18628-0.0252 0.50035-0.0254 0.69727 0 0.19716 0.0114 0.51742 0.0254 0.71289s0.05128 0.54139 0.08398 0.76758 0.0914 0.55359 0.13086 0.72656c0.0392 0.17297 0.10486 0.42854 0.14453 0.56836 0.0397 0.13959 0.12165 0.39589 0.18164 0.57031 0.06 0.17466 0.17506 0.47146 0.25586 0.66016 0.0808 0.18869 0.19661 0.44402 0.25781 0.5664 0.0615 0.12217 0.18269 0.34711 0.26953 0.5 0.0866 0.1529 0.23823 0.40376 0.33789 0.55665 0.09971 0.15289 0.27252 0.40177 0.38477 0.55273 0.11225 0.15119 0.2088 0.28725 0.21484 0.30273 0.006 0.0162-0.0973 0.0835-0.24804 0.15821-0.14346 0.0709-0.40815 0.21162-0.58789 0.3125-0.1795 0.10088-0.45728 0.26534-0.61719 0.36718-0.15991 0.10186-0.42066 0.27912-0.58008 0.39258s-0.41052 0.30284-0.55664 0.41992c-0.14636 0.11708-0.38489 0.31784-0.53125 0.44727-0.14636 0.12966-0.44783 0.41832-0.66797 0.64258-0.22014 0.22401-0.49348 0.51734-0.60742 0.65039-0.1137 0.13305-0.30802 0.37159-0.43164 0.53125-0.12338 0.15967-0.35648 0.49201-0.51953 0.73828-0.16305 0.24603-0.38058 0.59565-0.48242 0.77539-0.10185 0.1795-0.26654 0.48989-0.36524 0.69141-0.0989 0.20151-0.25007 0.53905-0.33789 0.75-0.0881 0.21095-0.23027 0.59095-0.31445 0.84375-0.0842 0.2528-0.20148 0.65504-0.26172 0.89453-0.0605 0.2395-0.13678 0.57703-0.16992 0.75-0.0334 0.17297-0.0828 0.47296-0.10938 0.66601-0.0264 0.1928-0.06238 0.50319-0.08008 0.68946-0.0191 0.20394-0.03205 0.65627-0.03125 1.13672 0.00074 0.58519 0.01197 0.90479 0.04297 1.19726 0.0232 0.21942 0.0699 0.56879 0.10157 0.77539 0.0317 0.20635 0.0971 0.55624 0.14453 0.77735 0.0477 0.22111 0.12743 0.55198 0.17968 0.73632 0.0523 0.18434 0.14657 0.48756 0.20899 0.67383 0.0626 0.18628 0.174 0.48529 0.24609 0.66407 0.0721 0.17853 0.19556 0.46644 0.27539 0.64062 0.0798 0.17394 0.22725 0.46997 0.32813 0.65625 0.10063 0.18627 0.24976 0.44703 0.33008 0.58008 0.0801 0.13306 0.22946 0.3664 0.33203 0.51953 0.10233 0.15289 0.28308 0.4087 0.40234 0.56836 0.11927 0.15966 0.34099 0.43745 0.49219 0.61719 0.1512 0.1795 0.4875 0.53876 0.74805 0.79882 0.2603 0.26006 0.61413 0.59215 0.78711 0.73633 0.17295 0.14394 0.45593 0.36644 0.6289 0.4961 0.17297 0.12943 0.43073 0.3114 0.57031 0.40429 0.13983 0.0929 0.36823 0.23857 0.50782 0.32227 0.13982 0.0837 0.40552 0.23334 0.59179 0.33398 0.18628 0.1004 0.48133 0.24755 0.6543 0.32618 0.17297 0.07889 0.47126 0.20627 0.66406 0.2832 0.19281 0.0769 0.52021 0.19594 0.72656 0.26367 0.20636 0.0677 0.51649 0.16034 0.68946 0.20703 0.17297 0.0467 0.46977 0.11804 0.66015 0.1582 0.19015 0.0402 0.4783 0.095 0.64063 0.1211 0.16232 0.0261 0.43641 0.06408 0.60937 0.08398 0.17297 0.0198 0.49543 0.04675 0.71485 0.06055 0.25377 0.016 2.36906 0.02519 5.81054 0.02539h5.41407v13.93359h5.22461v-13.93359h5.41406c3.41584-0.00025 5.55871-0.00899 5.81055-0.02539 0.21941-0.0138 0.54681-0.04025 0.72656-0.06055 0.17974-0.0203 0.51307-0.0687 0.74023-0.10742 0.22716-0.0385 0.57483-0.11079 0.77344-0.1582 0.19861-0.0474 0.52627-0.1336 0.72852-0.19336 0.20224-0.0595 0.51756-0.16346 0.70117-0.23047 0.18361-0.0673 0.49273-0.18971 0.68555-0.27149 0.19303-0.0815 0.53552-0.24227 0.76171-0.35742s0.51929-0.27244 0.65235-0.34961c0.13305-0.0769 0.40094-0.24285 0.59375-0.36914 0.19305-0.12628 0.4928-0.3359 0.66601-0.46484 0.17346-0.12894 0.44929-0.34795 0.61524-0.48633 0.16619-0.13813 0.52199-0.46778 0.78906-0.73437 0.26683-0.26659 0.60016-0.62092 0.74023-0.78711 0.14031-0.16644 0.35786-0.44027 0.48438-0.60742 0.12652-0.16742 0.31763-0.43334 0.42383-0.5918 0.1062-0.15869 0.25954-0.40165 0.34179-0.53906 0.0825-0.13741 0.22498-0.38928 0.31836-0.56055 0.0931-0.17152 0.24251-0.46781 0.33008-0.6582 0.0876-0.19014 0.2219-0.50447 0.29883-0.69727 0.0767-0.19305 0.19398-0.5185 0.26172-0.72461 0.0675-0.20635 0.16229-0.51649 0.20898-0.68945 0.0467-0.17297 0.11805-0.46978 0.15821-0.66016 0.0402-0.19015 0.095-0.48025 0.12109-0.64258 0.0262-0.16232 0.06223-0.4364 0.08203-0.60937s0.04675-0.49348 0.06055-0.71289c0.0138-0.21966 0.02559-0.57942 0.02539-0.79883-0.00025-0.21966-0.01044-0.56214-0.02344-0.76172s-0.0417-0.51489-0.0625-0.70117c-0.0208-0.18627-0.06495-0.49664-0.09765-0.68945-0.03291-0.19305-0.0971-0.52046-0.14454-0.72657-0.0477-0.20636-0.13604-0.54241-0.19531-0.74804-0.0595-0.20563-0.1652-0.53377-0.23633-0.72852-0.0709-0.19498-0.18667-0.48931-0.25586-0.6543-0.0692-0.16474-0.205-0.46253-0.30273-0.66211-0.0977-0.19958-0.26143-0.50995-0.36328-0.68945-0.10185-0.17974-0.31937-0.52936-0.48242-0.77539-0.16305-0.24627-0.40924-0.59394-0.54883-0.77344-0.13959-0.17975-0.37488-0.46271-0.52149-0.6289-0.14684-0.16644-0.46142-0.49288-0.69921-0.72657-0.23781-0.23345-0.56794-0.53765-0.73438-0.67578-0.16619-0.13813-0.43409-0.34949-0.59375-0.46875-0.15966-0.11902-0.44263-0.31656-0.62891-0.43945-0.18627-0.12313-0.4895-0.31129-0.67578-0.41797-0.18627-0.10645-0.47885-0.26322-0.64844-0.34765-0.16957-0.08421-0.30859-0.15975-0.30859-0.16797 0-0.008 0.0894-0.13194 0.19727-0.27539 0.10789-0.14322 0.28665-0.39828 0.39648-0.56641s0.26887-0.43109 0.35547-0.58399c0.0866-0.15289 0.20808-0.37781 0.26953-0.5 0.0612-0.12241 0.17701-0.37771 0.25781-0.5664 0.0808-0.1887 0.19611-0.4855 0.25586-0.66016 0.06-0.17442 0.14665-0.44776 0.19141-0.60742 0.0447-0.15967 0.10897-0.42042 0.14453-0.58008 0.0356-0.15966 0.0901-0.46485 0.12109-0.67773 0.031-0.21289 0.06974-0.57783 0.08594-0.81055 0.0184-0.26393 0.02503-0.61497 0.01563-0.93164-0.008-0.27941-0.03264-0.65423-0.05274-0.83398-0.0201-0.17974-0.05814-0.46271-0.08593-0.62891-0.02761-0.16643-0.0824-0.44101-0.1211-0.60937-0.0389-0.16839-0.10956-0.43655-0.15625-0.59766-0.0469-0.16088-0.13582-0.43198-0.19726-0.60156-0.0612-0.16958-0.1659-0.43305-0.23243-0.58594-0.0663-0.15289-0.18085-0.39857-0.2539-0.54492-0.0731-0.14636-0.19703-0.37995-0.27735-0.51953-0.0803-0.13983-0.22845-0.37909-0.32812-0.53125-0.0999-0.15217-0.2767-0.40279-0.39258-0.55664-0.11612-0.15385-0.31513-0.39857-0.44141-0.54493-0.12627-0.14636-0.40703-0.44141-0.625-0.65429-0.21796-0.21313-0.54019-0.50325-0.71679-0.64454-0.1766-0.14127-0.43932-0.33979-0.58399-0.4414-0.1449-0.10184-0.41008-0.27174-0.58789-0.37891-0.17756-0.10717-0.5156-0.29234-0.75195-0.41015-0.23635-0.11782-0.5961-0.27832-0.79883-0.35743-0.20272-0.0793-0.49188-0.18526-0.64453-0.23437-0.15265-0.0491-0.4477-0.13182-0.6543-0.18359-0.20659-0.0515-0.49722-0.11402-0.64648-0.14063-0.14926-0.0266-0.39988-0.06584-0.55664-0.08594s-0.43677-0.04704-0.62305-0.06054c-0.18627-0.0138-0.42232-0.02509-0.52344-0.02539h-0.18359l-0.01758-0.39258c-0.009-0.21627-0.03118-0.54121-0.05078-0.72071-0.0196-0.17974-0.05814-0.4627-0.08594-0.6289-0.0276-0.16643-0.0824-0.43905-0.12109-0.60742-0.0389-0.16837-0.10956-0.4385-0.15625-0.59961-0.0469-0.16088-0.13387-0.43199-0.19531-0.60157-0.0612-0.16958-0.16785-0.43304-0.23438-0.58593-0.0663-0.15314-0.17889-0.39857-0.25195-0.54493-0.0731-0.14636-0.19898-0.37995-0.2793-0.51953-0.0803-0.13983-0.22846-0.37909-0.32812-0.53125-0.0999-0.15216-0.27671-0.40279-0.39258-0.55664-0.11612-0.15386-0.31318-0.39856-0.43945-0.54492-0.12628-0.14636-0.40899-0.44141-0.62696-0.6543-0.21796-0.21313-0.5402-0.50325-0.71679-0.64453-0.1766-0.14128-0.43932-0.3398-0.58399-0.4414-0.1449-0.10185-0.40813-0.27174-0.58594-0.37891-0.17756-0.10717-0.51755-0.29235-0.7539-0.41016s-0.59415-0.27831-0.79688-0.35742c-0.20272-0.0793-0.49384-0.18526-0.64648-0.23437-0.15265-0.0491-0.44771-0.12987-0.6543-0.18164-0.2066-0.0515-0.49722-0.11597-0.64648-0.14258-0.14926-0.0266-0.39988-0.06584-0.55664-0.08594-0.15677-0.0201-0.43678-0.04705-0.62305-0.06055-0.18627-0.0138-0.53589-0.02318-0.77539-0.02148zm112.10351 11.75586c-9.97239 0-18.40029 3.56199-25.52343 10.56641-7.00442 7.00442-10.44727 15.43189-10.44727 25.40429v25.05078c0 1.66206 0.47492 2.96864 1.66211 4.03711 1.06847 1.18719 2.37309 1.66211 4.03516 1.66211 1.54334 0 2.8495-0.47492 3.91797-1.66211 1.18719-1.06847 1.78125-2.37505 1.78125-4.03711v-25.05078c0-6.76698 2.37428-12.58327 7.12304-17.33203 4.86748-4.86748 10.68419-7.24219 17.45117-7.24219 1.54335 0 2.84992-0.59364 4.03711-1.66211 1.06847-1.18719 1.66211-2.49376 1.66211-4.03711 0-1.54334-0.59364-2.96668-1.66211-4.03515-1.18719-1.06847-2.49376-1.66211-4.03711-1.66211zm163.45118 0.23633c-8.42904 0-15.55234 2.96834-21.48828 8.90429-5.93595 5.93594-8.9043 13.05884-8.9043 21.36914v30.51172c0 1.66206 0.59406 3.08625 1.78125 4.27344s2.61096 1.66211 4.15429 1.66211c1.66209 0 3.08821-0.47492 4.2754-1.66211s1.66211-2.61138 1.6621-4.27344v-30.51172c0-4.98619 1.89937-9.37788 5.46094-12.93945 3.56157-3.68028 7.95369-5.46094 13.0586-5.46094 5.10492 0 9.37831 1.78066 13.05859 5.46094 3.56157 3.56157 5.3418 7.95327 5.3418 12.93945v30.63086c0 1.54334 0.59406 2.96711 1.78125 4.1543s2.6129 1.78125 4.15625 1.78125c1.66207 0 3.08624-0.59406 4.27343-1.78125s1.66211-2.61138 1.66211-4.27344v-30.51172c0-8.31033-2.96792-15.4332-8.78515-21.36914-5.93595-5.93595-13.17795-8.90429-21.48828-8.90429zm-117.35547 1.06836c-9.02265 0-16.8587 3.32547-23.26953 9.73633-6.41082 6.41082-9.61524 14.12621-9.61524 23.26757 0 9.14137 3.20442 16.8587 9.61524 23.26953 6.41083 6.41082 14.24688 9.61719 23.26953 9.61719 8.19161 0 15.43404-2.61272 21.60742-7.95508v2.25586c0 1.66207 0.47492 2.96864 1.66211 4.03711 1.06847 1.18719 2.37308 1.66211 4.03516 1.66211 1.54334 0 2.84991-0.47492 4.0371-1.66211 1.06847-1.06847 1.66211-2.37504 1.66211-4.03711v-27.1875c0-9.14136-3.20482-16.85675-9.73437-23.26757-6.41083-6.41083-14.12817-9.73633-23.26953-9.73633zm196.73633 0c-6.17339 0-11.75362 1.42614-16.6211 4.27539-4.9862 2.84926-8.78509 6.76575-11.51562 11.75195-2.73054 4.98619-4.03711 10.68446-4.03711 16.97656 0 6.17339 1.30699 11.87318 4.15625 16.85938 2.84925 4.9862 6.76575 8.9027 11.75195 11.75195 4.98619 2.84926 10.56728 4.27539 16.85938 4.27539 8.54777 0 15.67063-2.61272 21.36914-7.95508 0.94976-0.94975 1.42382-2.01788 1.42382-3.20507 0-1.54335-0.83123-2.96754-2.25585-4.27344-0.94975-0.71232-2.01747-1.06836-3.08594-1.06836-1.42463 0-2.96795 0.59364-4.39258 1.66211-3.32413 2.84926-7.71623 4.15431-13.05859 4.15429-4.15516 0-7.83561-0.9501-11.04102-2.8496-3.20542-1.8995-5.69968-4.50986-7.48047-7.83399-1.78078-3.32414-2.61133-7.24369-2.61133-11.51758 0-6.64826 1.90022-12.10809 5.69922-16.14453 3.79901-4.03645 8.66646-6.17383 14.83985-6.17383 2.96797 0 5.57874 0.59322 7.95312 1.54297s4.51107 2.49392 6.5293 4.63086c1.18719 1.42463 2.73135 2.13672 4.63086 2.13672 0.94975 0 1.89943-0.23844 2.73047-0.83203 1.66206-1.18719 2.61132-2.61179 2.61132-4.39258 0-1.18718-0.47518-2.13619-1.1875-3.08594-6.17338-7.12314-14.00749-10.68554-23.26757-10.68554zm71.89062 0c-9.14136 0-16.85675 3.32547-23.26758 9.73633-6.41083 6.41082-9.61718 14.12621-9.61718 23.26757 0 9.14137 3.20635 16.8587 9.61718 23.26953 6.41083 6.41082 14.12622 9.61719 23.26758 9.61719 9.14137 0 16.8587-3.20637 23.26953-9.61719 6.41082-6.41083 9.73438-14.12816 9.73438-23.26953 0-9.14136-3.32356-16.85677-9.73438-23.26757-6.41083-6.41083-14.12816-9.73633-23.26953-9.73633zm138.16406 0c-9.14136 0-16.85871 3.32547-23.26953 9.73633-6.41083 6.41082-9.61719 14.12621-9.61719 23.26757 0 9.14137 3.20636 16.8587 9.61719 23.26953 6.41082 6.41082 14.12817 9.61719 23.26953 9.61719 7.83545 0 14.72073-2.37513 20.77539-7.36133 1.30591-0.94975 1.89928-2.25547 2.13672-3.79882 0.11872-1.66207-0.23817-2.96754-1.30664-4.27344-0.94975-1.18719-2.25548-1.90081-3.79883-2.01953s-2.9671 0.23817-4.15429 1.30664c-4.03644 3.20542-8.54743 4.74804-13.65235 4.74804-5.93595 0-11.0421-2.01713-15.19726-6.29101-4.27389-4.15517-6.29102-9.26132-6.29102-15.19727s2.01713-11.04056 6.29102-15.31445c4.15516-4.15516 9.26131-6.29102 15.19726-6.29102 4.86748 0 9.26001 1.54374 13.17774 4.51172 3.79901 2.96797 6.29175 6.76645 7.59765 11.39649h-20.77539c-1.54335 0-2.96864 0.59364-4.03711 1.66211s-1.66211 2.49181-1.66211 4.03515c0 1.54335 0.59364 2.96864 1.66211 4.03711s2.49376 1.66211 4.03711 1.66211h27.30469c1.54335 0 2.8495-0.59364 3.91797-1.66211 1.18719-1.06847 1.78125-2.49376 1.78125-4.03711 0-9.14136-3.3255-16.85675-9.73633-23.26757-6.41082-6.41083-14.12622-9.73633-23.26758-9.73633zm-348.52539 0.47656c-1.78079 0-3.20539 0.59364-4.39258 1.66211-1.18719 1.18719-1.6621 2.61179-1.66211 4.39258v52.83008c0 1.78079 0.47492 3.20538 1.66211 4.39257s2.61179 1.66211 4.39258 1.66211c1.78078 0 3.20539-0.47492 4.39258-1.66211 1.06847-1.18719 1.66211-2.6118 1.66211-4.39257v-52.83008c0-1.78079-0.59364-3.20539-1.66211-4.39258-1.18719-1.06847-2.6118-1.66211-4.39258-1.66211zm254.22657 0.23633c-0.94975 0-1.77987 0.23759-2.49219 0.59375-2.25566 1.18719-3.32422 2.73023-3.32422 4.86719 0 0.83102 0.11845 1.54312 0.47461 2.13671l25.16797 53.06836c0.71232 1.42463 1.42525 2.49234 2.375 3.08594 0.83104 0.59359 1.89959 0.83203 3.32422 0.83203 2.37438 0 4.27374-1.30615 5.46093-3.91797l25.16797-53.06836c0.35615-0.71231 0.59375-1.54355 0.59375-2.25586 0-0.94975-0.35715-1.89942-0.83203-2.73046-0.5936-0.83103-1.4233-1.5427-2.37305-2.01758-0.83103-0.35616-1.78072-0.59375-2.73046-0.59375-1.06849 0-2.019 0.35715-2.96876 0.83203-0.94974 0.47487-1.54269 1.18697-2.01757 2.13672l-20.41993 44.51953-20.6582-44.51953c-0.47488-0.94975-1.18655-1.66185-2.01758-2.13672-0.94975-0.47488-1.78073-0.83203-2.73046-0.83203zm-312.49219 10.68554c5.93595 0 11.04014 2.13628 15.19531 6.41016 4.27388 4.15517 6.41211 9.25936 6.41211 15.19531s-2.13823 11.0421-6.41211 15.19727c-4.15517 4.27388-9.25936 6.29101-15.19531 6.29101s-11.0421-2.01713-15.19727-6.29101c-4.27388-4.15517-6.29101-9.26132-6.29101-15.19727s2.01713-11.04014 6.29101-15.19531c4.15517-4.27388 9.26132-6.41016 15.19727-6.41016zm268.62695 0c5.93595 0 11.04057 2.13586 15.31445 6.29102 4.15517 4.27389 6.29297 9.3785 6.29297 15.31445s-2.1378 11.04211-6.29297 15.19727c-4.27388 4.27389-9.3785 6.29101-15.31445 6.29101s-11.04014-2.01712-15.19531-6.29101c-4.27388-4.15516-6.29297-9.26132-6.29297-15.19727s2.01909-11.04056 6.29297-15.31445c4.15517-4.15516 9.25936-6.29102 15.19531-6.29102z"
     id="outline" /><g
     style="opacity:0"
     id="logo-fade"><g
       id="logo-group"><path
         style="fill:#fbb351;stroke-width:0.43509901"
         d="m 226.04388,350.8746 c -0.2395,0.002 -0.56052,0.0128 -0.71365,0.024 -0.15289,0.0114 -0.44053,0.0431 -0.63866,0.0706 -0.19837,0.0273 -0.47052,0.0716 -0.60478,0.0982 -0.13451,0.0266 -0.39674,0.0866 -0.58278,0.13305 -0.18627,0.0467 -0.51286,0.14297 -0.72574,0.21434 -0.21313,0.0711 -0.53415,0.19159 -0.71389,0.26707 -0.1795,0.0757 -0.48432,0.21772 -0.67737,0.31546 -0.1928,0.098 -0.49278,0.2632 -0.66647,0.36771 -0.17345,0.10451 -0.43883,0.27626 -0.58931,0.38174 -0.15071,0.10547 -0.41706,0.30554 -0.59172,0.44464 -0.1749,0.13934 -0.54116,0.47633 -0.81525,0.75042 -0.27409,0.27409 -0.61108,0.64035 -0.75042,0.81525 -0.13911,0.17467 -0.33917,0.44102 -0.44464,0.59173 -0.10548,0.15047 -0.27724,0.41585 -0.38175,0.5893 -0.1045,0.1737 -0.26973,0.47343 -0.36771,0.66648 -0.0977,0.19281 -0.23973,0.49762 -0.31545,0.67736 -0.0755,0.1795 -0.19571,0.50077 -0.26684,0.71365 -0.0711,0.21289 -0.1616,0.51213 -0.20127,0.66527 -0.0394,0.15289 -0.0994,0.41416 -0.13305,0.58059 -0.0336,0.1662 -0.0835,0.46569 -0.1108,0.66527 -0.0271,0.19958 -0.0605,0.51528 -0.074,0.70155 -0.0136,0.18628 -0.0244,0.42311 -0.0247,0.52617 v 0.18748 h -0.18749 c -0.10305,2.4e-4 -0.33989,0.0111 -0.52616,0.0247 -0.18627,0.0136 -0.50101,0.0467 -0.69913,0.0738 -0.19838,0.0271 -0.47053,0.0711 -0.60479,0.0977 -0.13451,0.0266 -0.39674,0.0866 -0.58278,0.13306 -0.18627,0.0467 -0.51286,0.14297 -0.72574,0.21433 -0.21313,0.0711 -0.53415,0.1916 -0.71389,0.26708 -0.1795,0.0757 -0.48456,0.21772 -0.67736,0.31546 -0.19281,0.098 -0.49279,0.2632 -0.66648,0.36771 -0.17345,0.1045 -0.43883,0.27626 -0.5893,0.38174 -0.15072,0.10547 -0.41707,0.30554 -0.59173,0.44464 -0.1749,0.13934 -0.54116,0.47633 -0.81525,0.75042 -0.27409,0.27409 -0.61108,0.64035 -0.75042,0.81525 -0.1391,0.17467 -0.33917,0.44101 -0.44464,0.59173 -0.10548,0.15047 -0.27724,0.41585 -0.38175,0.5893 -0.1045,0.1737 -0.26973,0.47343 -0.36771,0.66648 -0.0977,0.1928 -0.23973,0.49762 -0.31545,0.67736 -0.0755,0.17974 -0.19571,0.50076 -0.26684,0.71365 -0.0711,0.21289 -0.16159,0.51238 -0.20127,0.66527 -0.0394,0.15289 -0.0994,0.41415 -0.13305,0.58059 -0.0336,0.1662 -0.0835,0.46569 -0.1108,0.66527 -0.0271,0.19958 -0.0605,0.51528 -0.074,0.70155 -0.0135,0.18628 -0.0244,0.50004 -0.0247,0.69696 0,0.19716 0.0114,0.51818 0.0254,0.71365 0.014,0.19547 0.052,0.54044 0.0847,0.76663 0.0327,0.22619 0.0914,0.55277 0.13088,0.72574 0.0392,0.17297 0.10402,0.42868 0.1437,0.5685 0.0397,0.13959 0.12119,0.39699 0.18119,0.57141 0.06,0.17466 0.17515,0.47197 0.25595,0.66067 0.0808,0.18869 0.19691,0.44319 0.25812,0.56559 0.0614,0.12217 0.1824,0.34764 0.26925,0.50053 0.0866,0.15289 0.23901,0.40351 0.33868,0.5564 0.0997,0.15289 0.27312,0.40182 0.38537,0.55278 0.11225,0.15119 0.20902,0.28739 0.21506,0.30287 0.006,0.0162 -0.0989,0.0823 -0.24965,0.15701 -0.14346,0.0709 -0.40739,0.21167 -0.58713,0.31255 -0.1795,0.10088 -0.45746,0.26683 -0.61737,0.36868 -0.1599,0.10185 -0.42117,0.27796 -0.58059,0.39142 -0.15942,0.11346 -0.40981,0.30215 -0.55592,0.41924 -0.14636,0.11708 -0.38586,0.31908 -0.53222,0.44851 -0.14636,0.12966 -0.44633,0.41899 -0.66647,0.64325 -0.22015,0.22401 -0.49351,0.51625 -0.60745,0.6493 -0.1137,0.13305 -0.30796,0.37255 -0.43158,0.53221 -0.12337,0.15967 -0.35803,0.49157 -0.52108,0.73784 -0.16305,0.24603 -0.37981,0.59439 -0.48166,0.77413 -0.10184,0.1795 -0.26586,0.49157 -0.36456,0.69309 -0.0989,0.20151 -0.25159,0.53898 -0.33941,0.74993 -0.0881,0.21095 -0.22861,0.59028 -0.31279,0.84308 -0.0842,0.2528 -0.20249,0.65559 -0.26272,0.89508 -0.0605,0.2395 -0.13717,0.57697 -0.17031,0.74994 -0.0334,0.17297 -0.0823,0.47222 -0.10886,0.66527 -0.0264,0.1928 -0.0624,0.50318 -0.0801,0.68945 -0.0191,0.20394 -0.0312,0.65656 -0.0305,1.13701 7.4e-4,0.58519 0.0123,0.905 0.0433,1.19747 0.0232,0.21942 0.0685,0.56802 0.10015,0.77462 0.0317,0.20635 0.0968,0.5564 0.14418,0.77751 0.0477,0.22111 0.12919,0.55302 0.18144,0.73736 0.0522,0.18434 0.14636,0.4877 0.20877,0.67397 0.0627,0.18628 0.17297,0.4848 0.24506,0.66358 0.0721,0.17853 0.19644,0.46689 0.27627,0.64107 0.0798,0.17394 0.22764,0.46859 0.32852,0.65487 0.10064,0.18627 0.24869,0.44754 0.32901,0.58059 0.0801,0.13306 0.22933,0.36699 0.3319,0.52012 0.10233,0.15289 0.28353,0.40884 0.40279,0.5685 0.11927,0.15966 0.34038,0.43714 0.49157,0.61688 0.1512,0.1795 0.48795,0.53923 0.74849,0.79929 0.2603,0.26006 0.61495,0.59052 0.78792,0.7347 0.17296,0.14394 0.456,0.36771 0.62897,0.49737 0.17297,0.12943 0.42892,0.31159 0.5685,0.40448 0.13983,0.0929 0.36844,0.23757 0.50803,0.32127 0.13982,0.0837 0.40641,0.23417 0.59269,0.33481 0.18627,0.1004 0.4802,0.24699 0.65317,0.32562 0.17297,0.0789 0.47246,0.20635 0.66527,0.28328 0.1928,0.0769 0.51939,0.19523 0.72574,0.26296 0.20635,0.0677 0.51649,0.1616 0.68946,0.20829 0.17297,0.0467 0.47004,0.11805 0.66043,0.15821 0.19014,0.0402 0.47875,0.0946 0.64107,0.12072 0.16233,0.0261 0.43666,0.0636 0.60963,0.0835 0.17297,0.0198 0.49423,0.0472 0.71365,0.061 0.25376,0.016 2.37052,0.0249 5.812,0.0251 h 5.41285 v 13.93431 h 5.22537 V 403.1249 h 5.41285 c 3.41584,-2.5e-4 5.56017,-0.009 5.81201,-0.0249 0.21942,-0.0138 0.546,-0.0416 0.72574,-0.0619 0.17975,-0.0203 0.51262,-0.0687 0.73978,-0.10742 0.22716,-0.0385 0.57552,-0.1091 0.77413,-0.15651 0.19861,-0.0474 0.5264,-0.13499 0.72865,-0.19475 0.20224,-0.0595 0.51794,-0.16305 0.70155,-0.23006 0.18361,-0.0673 0.49181,-0.18893 0.68462,-0.2707 0.19305,-0.0815 0.53584,-0.24264 0.76203,-0.35779 0.22619,-0.11515 0.52012,-0.27216 0.65317,-0.34933 0.13306,-0.0769 0.39989,-0.24336 0.5927,-0.36965 0.19304,-0.12628 0.49254,-0.33529 0.66574,-0.46423 0.17346,-0.12894 0.45094,-0.34763 0.61689,-0.48601 0.16619,-0.13813 0.52036,-0.46931 0.78743,-0.7359 0.26683,-0.26659 0.59995,-0.621 0.74002,-0.78719 0.14031,-0.16644 0.35852,-0.43932 0.48504,-0.60648 0.12652,-0.16741 0.31691,-0.43424 0.42311,-0.5927 0.1062,-0.15869 0.2603,-0.40109 0.34255,-0.5385 0.0825,-0.13741 0.22595,-0.38997 0.31933,-0.56124 0.0931,-0.17152 0.24095,-0.46714 0.32852,-0.65753 0.0876,-0.19014 0.22208,-0.50367 0.29901,-0.69647 0.0767,-0.19305 0.19498,-0.51964 0.26272,-0.72575 0.0675,-0.20635 0.16135,-0.51649 0.20805,-0.68945 0.0467,-0.17297 0.11805,-0.47005 0.15821,-0.66043 0.0402,-0.19015 0.0946,-0.47875 0.12071,-0.64108 0.0262,-0.16232 0.0636,-0.43665 0.0835,-0.60962 0.0198,-0.17297 0.0472,-0.49424 0.061,-0.71365 0.0138,-0.21966 0.0249,-0.57891 0.0247,-0.79832 -2.4e-4,-0.21966 -0.0111,-0.56245 -0.0242,-0.76203 -0.0131,-0.19958 -0.0409,-0.51528 -0.0617,-0.70156 -0.0208,-0.18627 -0.0648,-0.49665 -0.0975,-0.68946 -0.0329,-0.19305 -0.0985,-0.51963 -0.14588,-0.72574 -0.0477,-0.20636 -0.13499,-0.54334 -0.19425,-0.74897 -0.0595,-0.20563 -0.16596,-0.53342 -0.23708,-0.72817 -0.0709,-0.19498 -0.18579,-0.48939 -0.25498,-0.65438 -0.0692,-0.16474 -0.20587,-0.46302 -0.3036,-0.6626 -0.0977,-0.19958 -0.26103,-0.50996 -0.36287,-0.68946 -0.10185,-0.17974 -0.3186,-0.5281 -0.48166,-0.77413 -0.16305,-0.24627 -0.41077,-0.59462 -0.55036,-0.77412 -0.13958,-0.17975 -0.37399,-0.46279 -0.5206,-0.62898 -0.14684,-0.16644 -0.46133,-0.49351 -0.69913,-0.7272 -0.2378,-0.23345 -0.56826,-0.53754 -0.7347,-0.67567 -0.16619,-0.13813 -0.43302,-0.3486 -0.59269,-0.46786 -0.15966,-0.11902 -0.4427,-0.3174 -0.62898,-0.44029 -0.18627,-0.12313 -0.49108,-0.31086 -0.67736,-0.41754 -0.18627,-0.10645 -0.47754,-0.26248 -0.64712,-0.34691 -0.16959,-0.0842 -0.30844,-0.15991 -0.30844,-0.16813 0,-0.008 0.0883,-0.13209 0.19619,-0.27554 0.10789,-0.14322 0.28618,-0.39795 0.39602,-0.56608 0.10982,-0.16813 0.27046,-0.43085 0.35706,-0.58374 0.0866,-0.15289 0.20756,-0.37836 0.26901,-0.50053 0.0612,-0.12241 0.17732,-0.3769 0.25813,-0.56559 0.0808,-0.1887 0.19595,-0.48601 0.2557,-0.66067 0.06,-0.17442 0.14587,-0.44803 0.19063,-0.60769 0.0447,-0.15967 0.11031,-0.42094 0.14587,-0.5806 0.0356,-0.15966 0.0898,-0.46448 0.12072,-0.67736 0.031,-0.21289 0.0697,-0.5777 0.0859,-0.81042 0.0184,-0.26393 0.0239,-0.6147 0.0145,-0.93137 -0.008,-0.27941 -0.0317,-0.65486 -0.0518,-0.83461 -0.0201,-0.17974 -0.0593,-0.46278 -0.0871,-0.62898 -0.0276,-0.16643 -0.082,-0.44004 -0.12072,-0.60841 -0.0389,-0.16838 -0.10886,-0.43787 -0.15555,-0.59898 -0.0469,-0.16088 -0.13547,-0.43134 -0.19692,-0.60092 -0.0612,-0.16958 -0.16595,-0.43376 -0.23248,-0.58665 -0.0663,-0.15289 -0.18071,-0.39795 -0.25377,-0.5443 -0.0731,-0.14636 -0.19861,-0.38054 -0.27893,-0.52012 -0.0803,-0.13983 -0.22788,-0.37836 -0.32755,-0.53052 -0.0999,-0.15217 -0.27651,-0.40255 -0.39238,-0.55641 -0.11612,-0.15385 -0.31425,-0.39964 -0.44053,-0.546 -0.12628,-0.14636 -0.40787,-0.44053 -0.62584,-0.65341 -0.21796,-0.21313 -0.54068,-0.50294 -0.71727,-0.64422 -0.1766,-0.14128 -0.43932,-0.33989 -0.58399,-0.4415 -0.14491,-0.10184 -0.40859,-0.27263 -0.5864,-0.3798 -0.17756,-0.10717 -0.51625,-0.29151 -0.7526,-0.40932 -0.23635,-0.11782 -0.59559,-0.27917 -0.79832,-0.35828 -0.20272,-0.0793 -0.49351,-0.18434 -0.64615,-0.23345 -0.15265,-0.0491 -0.44658,-0.13136 -0.65317,-0.18313 -0.2066,-0.0515 -0.49786,-0.11563 -0.64713,-0.14224 -0.14926,-0.0266 -0.39964,-0.0648 -0.5564,-0.0849 -0.15676,-0.0201 -0.43738,-0.0477 -0.62366,-0.0612 -0.18627,-0.0138 -0.42141,-0.0249 -0.52253,-0.0252 h -0.18362 l -0.0167,-0.39311 c -0.009,-0.21627 -0.0324,-0.5402 -0.052,-0.7197 -0.0196,-0.17974 -0.0583,-0.46278 -0.0861,-0.62898 -0.0276,-0.16643 -0.082,-0.44004 -0.12072,-0.60841 -0.0389,-0.16837 -0.10886,-0.43787 -0.15555,-0.59898 -0.0469,-0.16088 -0.13547,-0.43134 -0.19691,-0.60092 -0.0612,-0.16958 -0.16596,-0.43375 -0.23249,-0.58664 -0.0663,-0.15314 -0.18071,-0.39795 -0.25376,-0.54431 -0.0731,-0.14636 -0.19862,-0.38054 -0.27893,-0.52012 -0.0803,-0.13983 -0.22789,-0.37836 -0.32755,-0.53052 -0.0999,-0.15216 -0.27651,-0.40255 -0.39239,-0.5564 -0.11612,-0.15386 -0.31425,-0.39965 -0.44053,-0.54601 -0.12628,-0.14636 -0.40787,-0.44052 -0.62583,-0.65341 -0.21797,-0.21313 -0.54068,-0.50294 -0.71728,-0.64422 -0.1766,-0.14128 -0.43932,-0.33989 -0.58399,-0.44149 -0.1449,-0.10185 -0.40859,-0.27264 -0.5864,-0.37981 -0.17756,-0.10717 -0.51624,-0.29151 -0.7526,-0.40932 -0.23635,-0.11781 -0.59559,-0.27917 -0.79831,-0.35828 -0.20273,-0.0793 -0.49351,-0.18434 -0.64616,-0.23345 -0.15265,-0.0491 -0.44657,-0.13136 -0.65317,-0.18313 -0.2066,-0.0515 -0.49786,-0.11563 -0.64712,-0.14224 -0.14926,-0.0266 -0.39964,-0.0648 -0.55641,-0.0849 -0.15676,-0.0201 -0.43738,-0.0477 -0.62365,-0.0612 -0.18628,-0.0138 -0.53464,-0.0235 -0.77413,-0.0218 z"
         id="icon" /><g
         transform="translate(199.96361)"
         style="font-variant-ligatures:none;fill:#d5d7da"
         aria-label="raincove"
         id="title"><path
           d="m 378.22906,-40.464 c -6.048,0 -11.16,2.16 -15.48,6.408 -4.248,4.248 -6.336,9.36 -6.336,15.408 v 15.192 c 0,1.008 0.288,1.8 1.008,2.448 0.648,0.72 1.44,1.008 2.448,1.008 0.936,0 1.728,-0.288 2.376,-1.008 0.72,-0.648 1.08,-1.44 1.08,-2.448 v -15.192 c 0,-4.104 1.44,-7.632 4.32,-10.512 2.952,-2.952 6.48,-4.392 10.584,-4.392 0.936,0 1.728,-0.36 2.448,-1.008 0.648,-0.72 1.008,-1.512 1.008,-2.448 0,-0.936 -0.36,-1.8 -1.008,-2.448 -0.72,-0.648 -1.512,-1.008 -2.448,-1.008 z"
           transform="matrix(1.648875,0,0,1.648875,-485.4687,429.35066)"
           style="font-variant-ligatures:none"
           id="path200476" /><path
           d="m 420.29619,-33.768 c -3.888,-3.888 -8.568,-5.904 -14.112,-5.904 -5.472,0 -10.224,2.016 -14.112,5.904 -3.888,3.888 -5.832,8.568 -5.832,14.112 0,5.544 1.944,10.224 5.832,14.112 3.888,3.888 8.64,5.832 14.112,5.832 4.968,0 9.36,-1.584 13.104,-4.824 v 1.368 c 0,1.008 0.288,1.8 1.008,2.448 0.648,0.72 1.44,1.008 2.448,1.008 0.936,0 1.728,-0.288 2.448,-1.008 0.648,-0.648 1.008,-1.44 1.008,-2.448 v -16.488 c 0,-5.544 -1.944,-10.224 -5.904,-14.112 z m -14.112,27.144 c -3.6,0 -6.696,-1.224 -9.216,-3.816 -2.592,-2.52 -3.816,-5.616 -3.816,-9.216 0,-3.6 1.224,-6.696 3.816,-9.216 2.52,-2.592 5.616,-3.888 9.216,-3.888 3.6,0 6.696,1.296 9.216,3.888 2.592,2.52 3.888,5.616 3.888,9.216 0,3.6 -1.296,6.696 -3.888,9.216 -2.52,2.592 -5.616,3.816 -9.216,3.816 z"
           transform="matrix(1.648875,0,0,1.648875,-485.4687,429.35066)"
           style="font-variant-ligatures:none"
           id="path200478" /><path
           d="m 438.85644,-38.376 c -0.72,0.72 -1.008,1.584 -1.008,2.664 v 32.04 c 0,1.08 0.288,1.944 1.008,2.664 0.72,0.72 1.584,1.008 2.664,1.008 1.08,0 1.944,-0.288 2.664,-1.008 0.648,-0.72 1.008,-1.584 1.008,-2.664 v -32.04 c 0,-1.08 -0.36,-1.944 -1.008,-2.664 -0.72,-0.648 -1.584,-1.008 -2.664,-1.008 -1.08,0 -1.944,0.36 -2.664,1.008 z m 5.976,-15.48 c -0.936,-0.936 -2.016,-1.44 -3.312,-1.44 -1.296,0 -2.448,0.504 -3.384,1.44 -0.936,0.936 -1.368,2.016 -1.368,3.312 0,1.296 0.432,2.448 1.368,3.384 0.936,0.936 2.088,1.368 3.384,1.368 1.296,0 2.376,-0.432 3.312,-1.368 0.936,-0.936 1.44,-2.088 1.44,-3.384 0,-1.296 -0.504,-2.376 -1.44,-3.312 z"
           transform="matrix(1.648875,0,0,1.648875,-485.4687,429.35066)"
           style="font-variant-ligatures:none"
           id="path200480" /><path
           d="m 492.11731,0.216 c 1.008,0 1.872,-0.36 2.592,-1.08 0.72,-0.72 1.008,-1.584 1.008,-2.592 V -21.96 c 0,-5.04 -1.8,-9.36 -5.328,-12.96 -3.6,-3.6 -7.992,-5.4 -13.032,-5.4 -5.112,0 -9.432,1.8 -13.032,5.4 -3.6,3.6 -5.4,7.92 -5.4,12.96 v 18.504 c 0,1.008 0.36,1.872 1.08,2.592 0.72,0.72 1.584,1.008 2.52,1.008 1.008,0 1.872,-0.288 2.592,-1.008 0.72,-0.72 1.008,-1.584 1.008,-2.592 V -21.96 c 0,-3.024 1.152,-5.688 3.312,-7.848 2.16,-2.232 4.824,-3.312 7.92,-3.312 3.096,0 5.688,1.08 7.92,3.312 2.16,2.16 3.24,4.824 3.24,7.848 v 18.576 c 0,0.936 0.36,1.8 1.08,2.52 0.72,0.72 1.584,1.08 2.52,1.08 z"
           transform="matrix(1.648875,0,0,1.648875,-485.4687,429.35066)"
           style="font-variant-ligatures:none"
           id="path200482" /><path
           d="m 539.61144,-33.192 c -3.744,-4.32 -8.496,-6.48 -14.112,-6.48 -3.744,0 -7.128,0.864 -10.08,2.592 -3.024,1.728 -5.328,4.104 -6.984,7.128 -1.656,3.024 -2.448,6.48 -2.448,10.296 0,3.744 0.792,7.2 2.52,10.224 1.728,3.024 4.104,5.4 7.128,7.128 3.024,1.728 6.408,2.592 10.224,2.592 5.184,0 9.504,-1.584 12.96,-4.824 0.576,-0.576 0.864,-1.224 0.864,-1.944 0,-0.936 -0.504,-1.8 -1.368,-2.592 -0.576,-0.432 -1.224,-0.648 -1.872,-0.648 -0.864,0 -1.8,0.36 -2.664,1.008 -2.016,1.728 -4.68,2.52 -7.92,2.52 -2.52,0 -4.752,-0.576 -6.696,-1.728 -1.944,-1.152 -3.456,-2.736 -4.536,-4.752 -1.08,-2.016 -1.584,-4.392 -1.584,-6.984 0,-4.032 1.152,-7.344 3.456,-9.792 2.304,-2.448 5.256,-3.744 9,-3.744 1.8,0 3.384,0.36 4.824,0.936 1.44,0.576 2.736,1.512 3.96,2.808 0.72,0.864 1.656,1.296 2.808,1.296 0.576,0 1.152,-0.144 1.656,-0.504 1.008,-0.72 1.584,-1.584 1.584,-2.664 0,-0.72 -0.288,-1.296 -0.72,-1.872 z"
           transform="matrix(1.648875,0,0,1.648875,-485.4687,429.35066)"
           style="font-variant-ligatures:none"
           id="path200484" /><path
           d="m 569.09994,0.288 c 5.544,0 10.224,-1.944 14.112,-5.832 3.888,-3.888 5.904,-8.568 5.904,-14.112 0,-5.544 -2.016,-10.224 -5.904,-14.112 -3.888,-3.888 -8.568,-5.904 -14.112,-5.904 -5.544,0 -10.224,2.016 -14.112,5.904 -3.888,3.888 -5.832,8.568 -5.832,14.112 0,5.544 1.944,10.224 5.832,14.112 3.888,3.888 8.568,5.832 14.112,5.832 z m 0,-33.048 c 3.6,0 6.696,1.296 9.288,3.816 2.52,2.592 3.816,5.688 3.816,9.288 0,3.6 -1.296,6.696 -3.816,9.216 -2.592,2.592 -5.688,3.816 -9.288,3.816 -3.6,0 -6.696,-1.224 -9.216,-3.816 -2.592,-2.52 -3.816,-5.616 -3.816,-9.216 0,-3.6 1.224,-6.696 3.816,-9.288 2.52,-2.52 5.616,-3.816 9.216,-3.816 z"
           transform="matrix(1.648875,0,0,1.648875,-485.4687,429.35066)"
           style="font-variant-ligatures:none"
           id="path200486" /><path
           d="m 629.61481,-37.656 c -0.36,-0.504 -0.864,-0.936 -1.44,-1.224 -0.504,-0.216 -1.08,-0.36 -1.656,-0.36 -0.648,0 -1.224,0.216 -1.8,0.504 -0.576,0.288 -0.936,0.72 -1.224,1.296 l -12.384,27 -12.528,-27 c -0.288,-0.576 -0.72,-1.008 -1.224,-1.296 -0.576,-0.288 -1.08,-0.504 -1.656,-0.504 -0.576,0 -1.08,0.144 -1.512,0.36 -1.368,0.72 -2.016,1.656 -2.016,2.952 0,0.504 0.072,0.936 0.288,1.296 l 15.264,32.184 c 0.432,0.864 0.864,1.512 1.44,1.872 0.504,0.36 1.152,0.504 2.016,0.504 1.44,0 2.592,-0.792 3.312,-2.376 l 15.264,-32.184 c 0.216,-0.432 0.36,-0.936 0.36,-1.368 0,-0.576 -0.216,-1.152 -0.504,-1.656 z"
           transform="matrix(1.648875,0,0,1.648875,-485.4687,429.35066)"
           style="font-variant-ligatures:none"
           id="path200488" /><path
           d="m 652.89219,0.288 c 4.752,0 8.928,-1.44 12.6,-4.464 0.792,-0.576 1.152,-1.368 1.296,-2.304 0.072,-1.008 -0.144,-1.8 -0.792,-2.592 -0.576,-0.72 -1.368,-1.152 -2.304,-1.224 -0.936,-0.072 -1.8,0.144 -2.52,0.792 -2.448,1.944 -5.184,2.88 -8.28,2.88 -3.6,0 -6.696,-1.224 -9.216,-3.816 -2.592,-2.52 -3.816,-5.616 -3.816,-9.216 0,-3.6 1.224,-6.696 3.816,-9.288 2.52,-2.52 5.616,-3.816 9.216,-3.816 2.952,0 5.616,0.936 7.992,2.736 2.304,1.8 3.816,4.104 4.608,6.912 h -12.6 c -0.936,0 -1.8,0.36 -2.448,1.008 -0.648,0.648 -1.008,1.512 -1.008,2.448 0,0.936 0.36,1.8 1.008,2.448 0.648,0.648 1.512,1.008 2.448,1.008 h 16.56 c 0.936,0 1.728,-0.36 2.376,-1.008 0.72,-0.648 1.08,-1.512 1.08,-2.448 0,-5.544 -2.016,-10.224 -5.904,-14.112 -3.888,-3.888 -8.568,-5.904 -14.112,-5.904 -5.544,0 -10.224,2.016 -14.112,5.904 -3.888,3.888 -5.832,8.568 -5.832,14.112 0,5.544 1.944,10.224 5.832,14.112 3.888,3.888 8.568,5.832 14.112,5.832 z"
           transform="matrix(1.648875,0,0,1.648875,-485.4687,429.35066)"
           style="font-variant-ligatures:none"
           id="path200490" /></g></g></g></svg>